<?xml version="1.0" encoding="UTF-8" standalone="no"?>
<svg xmlns:rdf="http://www.w3.org/1999/02/22-rdf-syntax-ns#" xmlns="http://www.w3.org/2000/svg" height="253pt" width="257pt" version="1.1" xmlns:cc="http://creativecommons.org/ns#" xmlns:dc="http://purl.org/dc/elements/1.1/" viewBox="0 0 257 253">
<path fill="#001200" d="m191.7 11.08c2.97-3.51 6.37-6.7 10.28-9.14 0.48 0.27 1.43 0.83 1.9 1.11-1.6 5.8-3.55 11.58-6.49 16.86-1.47-0.93-2.16 0.76-2.99 1.68-2.78 3.92-6.36 7.69-6.91 12.68-1.33 8.11-8.07 13.68-13.6 19.12-0.38 2.41-0.96 4.81-2.89 6.47-2.86 2.22-0.07 6.64-3.43 8.62-4.2 3.11-4.86 9.06-9.22 11.84-4.2 2.67-5.93 7.62-8.21 11.81-2.95 6.64-8.27 11.86-13.98 16.18-2.17 3.96-2.73 9.3-7.3 11.53-6.84 3.79-5.65 12.97-11.05 17.98-8.19 7.46-10.98 18.63-18.39 26.61-2.88 5.57-11.29 5.75-12.59 12.46 6.17-2.34 12.43-4.85 19.06-5.41 7.21 0.51 14.16-3.56 21.38-1.5 4.53 1.56 8.38-1.75 12.45-3.03 3.81-0.61 7.62-1.18 11.28-2.49 3.43 0.71 6.88 1.36 10.4 0.44 11.48 1.07 23 0.31 34.4 1.67 3.36-0.71 6.56-2.54 10.14-1.38 8.58 1.78 18.13-3.48 25.87 2.06 0.22 1.92-4.11 1.89-5.67 2.96-7.99 4.28-16.5-3.38-24.52 0.43-4.37 2.23-11.87-0.49-13.06 5.73-2.03-0.16-4.02-0.77-6.05-0.78-1.54 0.63-2.88 1.98-4.62 1.91-7.74-0.41-15.47 0.05-23.21-0.01-1.09 0.94-2.01 2.04-3.08 3-5.34-0.95-10.81-0.33-16.19 0.12-1.86-1.14-3.81-2.18-5.5-3.58-0.23 1.65-1.72 2.76-2.23 4.33-8.5 1.6-17.41-1.27-25.75 1.68-4.6 1.5-9.12-0.5-13.7-0.76-1.87 1.14-3.34 3.1-3.31 5.36 4.08 3.25 8.48 6.12 13.23 8.3 5.2 2.49 11.27 1.18 16.64 3.12 6.11 2.64 12.61 4.2 18.97 6.13 8.33 2.58 15.75 7.38 24.04 10.05 4.45 1.51 9.23 2.19 13.24 4.78 2.35 1.54 4.97 2.64 7.76 3.05 4.53 4.25 8.8 9.02 11.31 14.78-3.18-1.01-6.23-2.38-9.26-3.75-2.19-6.38-9.71-7.56-15.37-9.55-10.85-3.16-20.85-8.49-31.29-12.68-6.39-2.77-13.5-2.23-20.18-3.76-6.81-2.17-13.72-4.1-20.79-5.2-3.23-2.89-5.41-6.69-8.13-10.02-1.3-0.39-2.89-0.87-2.19 1.14 0.41 9.45 4.34 18.17 8.56 26.46 3.58 7.02 4.36 14.98 5.81 22.62-1.72 3.55-4.55 6.32-7.9 8.33 3.22-6.73 3.04-14.6 1.08-21.68-2.64-8.41-11.65-14.44-10.17-24.08-1.22-3.68 1.62-9.52-2.17-12.02l-0.22-0.82c1.41-2.57 2.92-6.3-1.62-5.37 2.04-11.24-3.5-21.03-8.79-30.3 2.52-5.04 0.07-10.62-0.52-15.86-0.53-4.11-4.46-6.85-4.66-11.03-0.25-4.48-1.21-8.95-0.83-13.44 0.57-3.32-2.91-5.62-3.16-8.73 1.53-3.28 4.03-7.44 1.33-10.8-3.02-3.66-4.69-8.66-3.54-13.34 0.68-2.74-0.59-5.43-0.8-8.15 0.05-5.46 1.86-11.34-0.94-16.39-3.3-6.37-1.21-13.71-3.41-20.33-1.33-8.04-6.02-14.79-8.66-22.36-1.68-4.17-2.77-8.87-6.4-11.85l0.01-0.86c5.3 1.01 9.74 4.84 12.93 9-2.23 7.98 6.9 13.15 6.84 20.9 0.4 6.89 4.87 12.48 6.57 18.98 1.42 4.89 0.92 10.66 4.45 14.72 3.01 6.78 0.88 14.57 3.27 21.49 1.05 2.92 0.47 6.04 0 9 1.1 0.43 2.81-0.24 3.45 1 1.98 10.5 1.62 21.47 3.27 32.09 1.46 4.37-0.99 8.77 0.1 13.18 1.06 5.02-0.49 10.44 1.74 15.2 2.36 5.53 1.86 11.72 3.44 17.45 0.4-0.1 1.2-0.31 1.61-0.41 2.09-4.79 2.4-10.29 5.28-14.76 3.65-6 7.94-11.93 8.32-19.23 1.54-0.11 3.08 0.07 4.62 0.04 1.34-2.99 0.61-7.51 4.27-8.61 3.89-1.11 3.02-6.01 5.4-8.54 3.89-4.14 5.58-9.68 9.21-13.99 2.87-9.53 11.83-15.62 14.48-25.27 4.2-2.89 5.92-8.28 10.66-10.48 3.4-1.66 2.09-6.78 5.51-8.44 7.13-4.52 12.54-11.87 13.58-20.32 1.03-2.98 6.48-1.24 7.2-4.95 1.51-4.67 5.41-7.39 9.59-9.48 2.29-3.33 1.98-7.92 4.86-10.98 2.49-3.09 4.94-6.43 5.15-10.54z"/>
<path fill="#287b00" d="m35.89 4.89c3.63 2.98 4.72 7.68 6.4 11.85 2.64 7.57 7.33 14.32 8.66 22.36 2.2 6.62 0.11 13.96 3.41 20.33 2.8 5.05 0.99 10.93 0.94 16.39 0.21 2.72 1.48 5.41 0.8 8.15-1.15 4.68 0.52 9.68 3.54 13.34 2.7 3.36 0.2 7.52-1.33 10.8 0.25 3.11 3.73 5.41 3.16 8.73-0.38 4.49 0.58 8.96 0.83 13.44 0.2 4.18 4.13 6.92 4.66 11.03 0.59 5.24 3.04 10.82 0.52 15.86 5.29 9.27 10.83 19.06 8.79 30.3-11.11 5.93-23.51 9.7-36.27 8.49-5.3-2.09-10.22-5.38-15.98-6.19 0.69-3.96 6.31-3.3 9.05-3.58 9.38 0.01 18.72 1.07 28.09 1.54 3.53 0.93 6.93-0.24 10.22-1.31 3.71-0.12 2.23-3.62 0.42-5.26-2.46-6.8-6.03-13.08-9.94-19.13-1.39-2.65-0.65-6.02-2.66-8.38-3.71-4.11-6.45-9.11-8.47-14.28 2.18-0.11 6 0.37 3.28-4.32 0.45-6.77-9.54-9-8.61-15.9 1.09-5.64-1.2-11.47-4.78-15.77-3.36-0.32-6.77-0.07-10.13-0.46 2.79 0.14 5.65 0.17 8.38-0.52 1.9-1.63 3.91-4.37 2.71-6.97-1.61-4.46-4.25-8.54-5.31-13.18 1.27-1.26 4.74-1.74 3.38-4.03-0.81-4.27-4.24-12.04 1.93-13.46-1.04-4.46-3.67-8.56-3.32-13.29 1.31-0.75 2.68-1.4 4.03-2.09-0.45-3.39-2.04-6.6-2.06-10.04 1.08-1.46 3.71-2.14 3.63-4.18-1.54-3.25-4.07-5.88-5.61-9.12 3.14-1.01 8.21-4.55 1.99-7.02-5.74-2.52-4.03-9.36-4.35-14.13z"/>
<path fill="#2d8c00" d="m179.38 21.25c3.11-4.48 7.72-7.41 12.32-10.17-0.21 4.11-2.66 7.45-5.15 10.54-2.88 3.06-2.57 7.65-4.86 10.98-4.18 2.09-8.08 4.81-9.59 9.48-0.72 3.71-6.17 1.97-7.2 4.95-1.04 8.45-6.45 15.8-13.58 20.32-3.42 1.66-2.11 6.78-5.51 8.44-4.74 2.2-6.46 7.59-10.66 10.48-2.65 9.65-11.61 15.74-14.48 25.27-3.63 4.31-5.32 9.85-9.21 13.99-2.38 2.53-1.51 7.43-5.4 8.54-3.66 1.1-2.93 5.62-4.27 8.61-1.54 0.03-3.08-0.15-4.62-0.04-0.38 7.3-4.67 13.23-8.32 19.23-2.88 4.47-3.19 9.97-5.28 14.76-0.41 0.1-1.21 0.31-1.61 0.41-1.58-5.73-1.08-11.92-3.44-17.45-2.23-4.76-0.68-10.18-1.74-15.2-1.09-4.41 1.36-8.81-0.1-13.18-1.65-10.62-1.29-21.59-3.27-32.09-0.64-1.24-2.35-0.57-3.45-1 0.47-2.96 1.05-6.08 0-9-2.39-6.92-0.26-14.71-3.27-21.49-3.53-4.06-3.03-9.83-4.45-14.72-1.7-6.5-6.17-12.09-6.57-18.98 0.06-7.75-9.07-12.92-6.84-20.9 3.64 5.41 6.88 13.21 13.98 14.72 2.93 4.33 1.69 12.24 7.95 13.54 3.66 0.82 1.97 5.99 3.03 8.35 1.41-0.1 1.95-1.56 2.54-2.61 2.25 2.22 2.52 5.93 5.35 7.78 0.05 2.39 0.16 7.15 0.22 9.53 2.1 1.55 2.51-1.29 3.47-2.57 2.26 4.6 0.8 10.29 1.98 15.18 1.43 1.17 3.59 0.41 5.33 0.55 3.04 12.9 2.69 26.38 2.08 39.53-2.36 7.95-7.76 15.56-6.26 24.2 0.35 0.24 1.04 0.72 1.39 0.96 2.01-5.16 2.56-10.71 4.04-15.97 1.47-0.75 3.03-1.31 4.52-2.04 1.66-7.68 0.06-16 3.2-23.39 1.69-1.1 3.42-2.15 5.1-3.28 2.02-5.67 1.78-11.93 3.86-17.58 1.64-0.29 3.34-0.23 4.94-0.7 2.36-4.49 3.47-9.53 5.55-14.13 2.1-0.23 3.49 1.62 4.89 2.87 3.59-4.9 4.88-11.23 9.22-15.61 1.39 0.76 2.99 0.59 4.46 1.04 3.24-3.6 5.02-8.68 9.19-11.3 0.62 1.68 1.57 3.21 2.08 4.93 6.4-1.9 5.89-10.61 9.94-14.88 1.33 0.61 1.95 3.68 3.55 1.94 3.47-3.09 5.83-7.21 8.94-10.64 1.49-1.97 4.7-0.03 6.01-2.2z"/>
<path fill="#309000" d="m194.4 21.59c0.83-0.92 1.52-2.61 2.99-1.68 0.18 2.87-1.23 5.61 0.01 8.48-1.9 4.07-5.09 7.4-7.46 11.2 1.23-0.17 2.46-0.39 3.7-0.55-1.75 5.45-7.63 9.19-7.57 15.22 0.96 0.04 1.91 0.08 2.87 0.11-1.74 4.97-6.57 8.15-8.67 12.77-1.28 3.61 5.53-1 4.44 2.64-2.04 5.7-10.13 9.72-8.24 16.44 1.48 0.21 2.99 0.21 4.49 0.33-0.59 6.59-8.24 10.12-9.94 16.39 0.47 1.58 1.74 2.69 2.59 4.06-3.84 3.71-8.62 6.5-11.66 11-0.95 2.81-0.18 5.89-1.02 8.72-2.58 3.48-6.87 4.63-10.38 6.84-1.17 1.94-1.74 4.17-2.81 6.16-3.22 2.13-7.25 2.63-10.71 4.31 0.69 1.57 1.73 3.03 3.05 4.14 6.27-3.13 12.31-10.22 19.85-6.92 3.8-0.89 7.71-2.53 11.66-1.38l-0.42 3.06c5.06-1.33 10.36-2.68 15.59-1.34-0.08 1.17-0.17 2.33-0.27 3.5 5.01 0.3 10.04 0.23 15.04 0.72 0.04 1.37-0.01 2.75 0.04 4.12 4.23 0.39 8.18 1.92 12.04 3.57 4.53 1.87 10.66 0.97 13.37 5.79 10.15 1.92 18.89 7.79 26.81 14.13-0.91 3.96-7.68-0.68-10.88 1.31-0.62 1.45-1.76 2.72-2.03 4.3-3.08-1.47-6.71-1.64-10.04-2.02-1.66 1.59 1.61 2.79 0.4 4.15-7.89 0.51-15.76 1.96-23.67 0.85-0.19 1.6-0.08 3.2-0.06 4.81-3.58 0.84-7.33 1.08-10.7 2.67-2.81 6.24-11.02 2.96-16.51 4.53 0.18 1.97 0.51 3.92 0.76 5.89-5.14-0.98-10.24-2.42-15.53-2.02-0.4 2.43 0.4 4.84 1.8 6.82 4 6.01 7.67 12.22 11.47 18.36-2.79-0.41-5.41-1.51-7.76-3.05-4.01-2.59-8.79-3.27-13.24-4.78-8.29-2.67-15.71-7.47-24.04-10.05-6.36-1.93-12.86-3.49-18.97-6.13-5.37-1.94-11.44-0.63-16.64-3.12-4.75-2.18-9.15-5.05-13.23-8.3-0.03-2.26 1.44-4.22 3.31-5.36 4.58 0.26 9.1 2.26 13.7 0.76 8.34-2.95 17.25-0.08 25.75-1.68 0.51-1.57 2-2.68 2.23-4.33 1.69 1.4 3.64 2.44 5.5 3.58 5.38-0.45 10.85-1.07 16.19-0.12 1.07-0.96 1.99-2.06 3.08-3 7.74 0.06 15.47-0.4 23.21 0.01 1.74 0.07 3.08-1.28 4.62-1.91 2.03 0.01 4.02 0.62 6.05 0.78 1.19-6.22 8.69-3.5 13.06-5.73 8.02-3.81 16.53 3.85 24.52-0.43 1.56-1.07 5.89-1.04 5.67-2.96-7.74-5.54-17.29-0.28-25.87-2.06-3.58-1.16-6.78 0.67-10.14 1.38-11.4-1.36-22.92-0.6-34.4-1.67-3.52 0.92-6.97 0.27-10.4-0.44-3.66 1.31-7.47 1.88-11.28 2.49-4.07 1.28-7.92 4.59-12.45 3.03-7.22-2.06-14.17 2.01-21.38 1.5-6.63 0.56-12.89 3.07-19.06 5.41 1.3-6.71 9.71-6.89 12.59-12.46 7.41-7.98 10.2-19.15 18.39-26.61 5.4-5.01 4.21-14.19 11.05-17.98 4.57-2.23 5.13-7.57 7.3-11.53 5.71-4.32 11.03-9.54 13.98-16.18 2.28-4.19 4.01-9.14 8.21-11.81 4.36-2.78 5.02-8.73 9.22-11.84 3.36-1.98 0.57-6.4 3.43-8.62 1.93-1.66 2.51-4.06 2.89-6.47 5.53-5.44 12.27-11.01 13.6-19.12 0.55-4.99 4.13-8.76 6.91-12.68z"/>
<path fill="#4cb300" d="m1.96 88.95c1.73-1.32 3.84-0.27 5.56 0.46 7.93 4.02 15.32 9.01 22.97 13.51 3.36 0.39 6.77 0.14 10.13 0.46 3.58 4.3 5.87 10.13 4.78 15.77-0.93 6.9 9.06 9.13 8.61 15.9 2.72 4.69-1.1 4.21-3.28 4.32-0.74-7.75-7.85-11.87-9.93-18.97-0.51-2.74-4.04-1.24-5.07-3.41-3.11-4.65-6.96-8.72-10.44-13.1-5.4 0.58-8.22-5.25-13.14-5.73 0.51 5.2 6.31 8.07 7.48 13.22 4.13 6.47 9.69 12.09 12.66 19.33 2.84 7.05 9.01 11.79 12.66 18.31 3.58 5.96 9.81 9.94 12.51 16.47 1.4 3.95 7.46 6.21 5.57 10.8-5.92-4.26-12.25-7.9-18.21-12.09-4.41-4.66-7.29-10.59-12.1-14.92-7.8-7.27-14.86-15.93-17.72-26.38-2.91-7.01-1.06-15.25-5.08-21.84-2.47-4.15-5.53-7.93-7.96-12.11z"/>
<path fill="#001200" d="m12.15 98.16c4.92 0.48 7.74 6.31 13.14 5.73 3.48 4.38 7.33 8.45 10.44 13.1 1.03 2.17 4.56 0.67 5.07 3.41 2.08 7.1 9.19 11.22 9.93 18.97 2.02 5.17 4.76 10.17 8.47 14.28 2.01 2.36 1.27 5.73 2.66 8.38 3.91 6.05 7.48 12.33 9.94 19.13-2.88-1.71-5.91-3.14-8.77-4.87 1.89-4.59-4.17-6.85-5.57-10.8-2.7-6.53-8.93-10.51-12.51-16.47-3.65-6.52-9.82-11.26-12.66-18.31-2.97-7.24-8.53-12.86-12.66-19.33-1.17-5.15-6.97-8.02-7.48-13.22z"/>
<path fill="#589d00" d="m24.01 180.95c4.12-6.85 13.1-7.4 20.25-6.6 7.91 1.01 14.14 6.34 21.01 9.88-5.46 0.76-10.63-1.53-15.89-2.56-8.25-2.37-16.93-1.44-25.37-0.72z"/>
<path fill="#001200" d="m24.01 180.95c8.44-0.72 17.12-1.65 25.37 0.72 5.26 1.03 10.43 3.32 15.89 2.56 2.09 0.58 4.07 1.47 6.11 2.19-3.29 1.07-6.69 2.24-10.22 1.31-9.37-0.47-18.71-1.53-28.09-1.54-2.74 0.28-8.36-0.38-9.05 3.58-1.66 1.24-3.52 2.17-5.41 2.91-0.25-4.67 2.51-8.44 5.4-11.73z"/>
<path fill="#339300" d="m76.27 187.47c4.54-0.93 3.03 2.8 1.62 5.37-1.45 0.97-3.12 1.75-3.9 3.41-4.44 7.68-8.8 15.64-10.52 24.43-0.79 8.57-0.36 17.19-0.65 25.79-6.16 4.11-8.94-4.04-7.76-8.44 1.06-7.97 2.44-16.01 5.45-23.51 4.04-9.68 10.48-18.06 15.76-27.05z"/>
<path fill="#56b800" d="m78.11 193.66c3.79 2.5 0.95 8.34 2.17 12.02-1.48 9.64 7.53 15.67 10.17 24.08 1.96 7.08 2.14 14.95-1.08 21.68-0.21 0.39-0.63 1.17-0.84 1.56h-1.86c0.49-4.95 0.56-10.02-0.23-14.92-2.8-6.5-7.87-12.01-9.64-18.95-1.55-8.51 1.11-16.97 1.31-25.47z"/>
<path fill="#589c00" d="m82.9 194.03c4.42 10.14 15.11 15.75 19.75 25.66 1.34 8.01-0.47 16.84-5.38 23.42-1.45-7.64-2.23-15.6-5.81-22.62-4.22-8.29-8.15-17.01-8.56-26.46z"/>
<path fill="#57b100" d="m93.22 202.91c7.07 1.1 13.98 3.03 20.79 5.2 6.68 1.53 13.79 0.99 20.18 3.76 10.44 4.19 20.44 9.52 31.29 12.68 5.66 1.99 13.18 3.17 15.37 9.55-3.23-1.01-6.82-2.41-9.89-0.23-3.26 2.3-6.46-4.66-9.07-1.13-1.24 1.92-3.1-0.59-4.64-0.89-1.77-1.57-3.12 0.8-4.51 1.62-1.93-0.17-3.76-1.29-5.66-0.39-3.13 1.55-5.79-4.57-8.5-1.65-2.06 2.24-5.16-2.1-7.4-0.07-1.27 0.86-2.8 1.8-4.25 0.71-5.5-3.36-8.58-9.56-14.09-12.95-7.32-4.42-14.31-9.43-19.62-16.21z"/>
<path fill="#001200" d="m191.68 11.09c2.98-3.5 6.37-6.73 10.3-9.15 0.48 0.28 1.43 0.84 1.91 1.12-1.52 5.37-3.05 10.91-6.22 15.59-4.41 2.79-5.27 8.72-9.66 11.33-1.89 5.69-2.41 12.16-6.4 16.98-6.5 2.49-9.41 9.27-11.85 15.29 0.08 7.13-8.99 9.32-8.61 16.84-5.65-0.12-5.15 5.95-8.13 9-2.21 2.15-2.65 5.23-3.82 7.94-3.66 4.43-8.11 8.11-12.64 11.62-2.61 3.52-3.1 8.39-6.28 11.6-2.32 2.84-5.4 5.35-6.43 8.98-4.3 3.14-4.5 8.99-7.44 13.13-2.03 3.65-6.9 4.57-8.52 8.58-2.59 4.11-2.82 10.02-7.36 12.6-2.13 1.63-2.11 5.16-4.79 6.22-3.32 1.58-6.87 3.1-9.02 6.27-0.38 0.45-1.15 1.34-1.53 1.79-0.41-5.13 0.1-10.94 3.01-15.45 0.39-0.39 1.18-1.17 1.57-1.56 5-3.86 6.76-10.14 7.38-16.16 1.52-0.31 3.08 0.27 4.61-0.01 1.84-3.44 1.49-8.68 6.45-9.57 2.34-1.89 1.14-6.1 3.68-8.07 4.2-3.35 5.12-8.93 7.91-13.29 2.56-6.08 5.93-11.76 10.56-16.51 2.62-2.29 0.32-9.58 4.96-6.99-0.86-4.2 3.17-5.98 4.54-9.28 0.92-2.21 3.51-2.7 5.4-3.78 4.39-1.39 0.73-8.35 5.23-9.63 8.38-3.23 14.73-11.59 14.1-20.76 5.74 1.29 6.74-3.13 7.99-7.1 2.68-2.88 6.45-4.53 9.52-6.93 0.8-2.74 1.03-5.63 2.03-8.31 1.5-2.03 3.91-3.12 5.63-4.95 1.45-2.16 1.48-4.89 1.92-7.38z"/>
<path fill="#2b8300" d="m36.11 13.3c1.02-2.14-3.18-10.53 2.05-8.45 0.67 5.22 3.95 9.68 4.09 15.04-3-1.08-6.23-2.93-6.14-6.59z"/>
<path fill="#001200" d="m38.16 4.85c4.01 1.11 6.95 4.3 9.97 6.97-0.43 0.34-1.28 1.03-1.71 1.37 0.65 7.54 5.21 13.63 8.46 20.14 1.82 2.69-1.34 7.04 2.18 8.52 4.25 6.16 5.9 13.62 5.63 21.05 4.41 0.84 3.88 6.42 5.23 9.55 1.28 3.87-0.05 7.67-0.61 11.47 2.26 4.13 3.67 8.63 3.53 13.42 0.05 3.17 3.02 5.08 4.6 7.39 0.13 11.49 0.1 23.05 1.87 34.44 0.93 6.11-0.69 12.3-0.46 18.34 3.19 5.9 1.72 13.08 4.53 19.05 1.31 3.17 5.59 3.2 7.47 0.58 4.57-6.41 13.49-3.77 20.2-5.92 9.11-3.28 18.94-0.45 28.15-3.17 11.37-2.63 23.19-4.22 34.83-2.56 2.66 0.49 5.12-1.03 7.72-1.03 1.39 0.54 2.67 3.59 4.38 1.91 1.78-3.78 6.6-0.55 9.36-0.79 12.76 0.51 25.59-0.85 38.33 0.42 0.89 2.93-0.53 4.15-4.25 3.64-12.61 2.98-27.5-2.19-38.72 6.32-2.76 0.8-6.71-0.6-8.59 2.29-8.24 1.06-16.53-0.3-24.76-0.87-6.43 3.11-13.81 3.86-20.84 3.07-2.65-0.69-6.56-6.59-7.12 0.14-4.85 4.6-11.79 1.83-17.57 1.7-6.39-0.14-12.79 0.93-19.17 0.05-3.45-0.93-6.23 2.43-6.95 5.47 8.39 6.94 18.68 11.17 29.73 10.52 4.28 0.75 7.81 3.73 12.22 4.13 4.79 1.46 10.6 1.35 14.46 4.83 11.79 7.61 26.47 8.78 38.74 15.68 4.21 4.53 8.61 9.13 11.12 14.87-3.2-0.97-6.24-2.37-9.26-3.77-1.04-3.44-4.31-4.78-7.05-6.55-3.73-5-12.07-0.66-15.49-6.15-9.61-0.23-16.43-8.86-25.89-9.51-6.21 2.59-3.95-1.63-2.78-3.47-7.74 0.48-15.7 0.92-23.24-1.26-0.07-1.14-0.15-2.27-0.24-3.39-4.32-0.38-8.67-0.29-12.98-0.77-3.83-3.28-5.68-8.48-10.06-11.13 0.19 2.01 0.49 4 0.72 6.01-0.07 3.15-0.14 6.34-0.09 9.51 3.91-2.94 1.8 2.81 1.83 5.43 0.86-0.53 1.71-1.06 2.56-1.6 2.34 7.48 7.11 14.36 6.64 22.51 0.2 4.03 0.33 8.09 0.41 12.14-0.47 2.23-1.99 3.43-4.23 3.63-0.36-8.45 1.27-17.38-1.84-25.48-2.61-0.89-4.63-2.72-5.9-5.15-5.48-7.27-1.37-17.28-4.92-25.21l-0.35-0.76c1.42-2.49 2.7-6.39-1.66-5.22l-0.03-0.84c-0.28-5.42 0.09-10.94-0.94-16.27-4.5-0.24-1.64-6.62-5.02-8.83-0.84-1.59-1.85-3.29-1.39-5.16 0.99-5.55-0.88-11.1-1.82-16.51-0.88-3.62-4.48-5.65-5.94-8.9 3.36-10.2-4.11-20.78-0.24-31.02-2.09-6.64-7.06-12.91-5.1-20.35 1.02-5.7-2.31-11.73 0.54-17.12 1.43-2.56-3.03-2.93-4.05-4.79-0.56-5.36 0.16-10.73-0.17-16.09-0.57-0.22-1.7-0.65-2.27-0.86 0.27-6.21-2.14-11.99-3.95-17.79-1.03-0.71-2.15-1.28-3.24-1.89-0.11-0.34-0.32-1.01-0.43-1.34-0.14-5.36-3.42-9.82-4.09-15.04z"/>
<path fill="#309000" d="m179.82 20.72c3.02-4.25 7.5-6.94 11.86-9.63-0.44 2.49-0.47 5.22-1.92 7.38-1.72 1.83-4.13 2.92-5.63 4.95-1 2.68-1.23 5.57-2.03 8.31-3.07 2.4-6.84 4.05-9.52 6.93-1.25 3.97-2.25 8.39-7.99 7.1 0.63 9.17-5.72 17.53-14.1 20.76-4.5 1.28-0.84 8.24-5.23 9.63-1.89 1.08-4.48 1.57-5.4 3.78-1.37 3.3-5.4 5.08-4.54 9.28-4.64-2.59-2.34 4.7-4.96 6.99-4.63 4.75-8 10.43-10.56 16.51-1.94 1.43-4.46 2.45-4.6 5.42-1.23 4.78-6.36 6.9-7.23 11.91-6.37 0.9-4.97 8.12-6.82 12.59-1.45-0.44-2.83-1.09-4.32-1.34-0.33 6.85-4.37 12.46-7.06 18.52-0.39 0.39-1.18 1.17-1.57 1.56-0.55 0.08-1.65 0.26-2.2 0.35 1.56-5.61 5.11-10.41 6.58-16.04 0.74-1.86-0.82-3.45-1.5-5.06 0.52-4.86 1.35-9.71 2.87-14.37 1.46-0.78 3.01-1.35 4.47-2.11 1.81-7.61-0.05-16.01 3.29-23.29 1.55-1.29 3.42-2.13 5.01-3.38 2.15-5.61 1.73-11.89 3.9-17.5 1.61-0.47 3.34-0.19 4.93-0.75 2.39-4.46 3.41-9.53 5.6-14.1 2.08-0.1 3.4 1.69 4.9 2.82 3.56-4.84 4.7-11.23 9.15-15.43 1.5 0.15 2.95 0.66 4.45 0.83 3.31-3.53 5.05-8.57 9.2-11.24 0.79 1.59 1.35 3.28 2.12 4.89 6.36-1.9 5.87-10.51 9.91-14.89 0.81 0.85 1.56 1.76 2.38 2.61 4.63-2.67 6.74-8.16 10.61-11.71 1.93-1.01 4.75 0.04 5.95-2.28z"/>
<path fill="#024d00" d="m46.42 13.19c0.43-0.34 1.28-1.03 1.71-1.37 0.19 0.33 0.57 0.98 0.76 1.31-0.07 5.41 2.76 9.89 5.57 14.22 3.11 4.22 2.12 9.62 2.6 14.5-3.52-1.48-0.36-5.83-2.18-8.52-3.25-6.51-7.81-12.6-8.46-20.14z"/>
<path fill="#287b00" d="m48.89 13.13c3.57 5.49 6.88 13 13.9 14.67 2.17 3.61 2.38 8.09 4.49 11.75 1.7 1.21 3.9 1.6 5.45 3.02 0.67 2.37 0.76 4.84 1.19 7.25 0.91-0.87 1.7-1.84 2.51-2.8 1.88 2.51 2.85 5.62 5.12 7.89 0.1 2.34 0.29 7.02 0.38 9.36 2.03 1.61 2.49-1.24 3.47-2.47 2.19 4.65 0.86 10.26 1.84 15.19 1.66 0.9 3.63 0.38 5.43 0.59 2.87 11.36 2.47 23.28 2.39 34.91 0.27 10.13-9.29 18.97-6.14 29.28 0.54-0.28 1.62-0.86 2.16-1.15 0.68 1.61 2.24 3.2 1.5 5.06-1.47 5.63-5.02 10.43-6.58 16.04 0.55-0.09 1.65-0.27 2.2-0.35-2.91 4.51-3.42 10.32-3.01 15.45 0.38-0.45 1.15-1.34 1.53-1.79 0.71 0.7 1.41 1.4 2.13 2.11-1.88 2.62-6.16 2.59-7.47-0.58-2.81-5.97-1.34-13.15-4.53-19.05-0.23-6.04 1.39-12.23 0.46-18.34-1.77-11.39-1.74-22.95-1.87-34.44-1.58-2.31-4.55-4.22-4.6-7.39 0.14-4.79-1.27-9.29-3.53-13.42 0.56-3.8 1.89-7.6 0.61-11.47-1.35-3.13-0.82-8.71-5.23-9.55 0.27-7.43-1.38-14.89-5.63-21.05-0.48-4.88 0.51-10.28-2.6-14.5-2.81-4.33-5.64-8.81-5.57-14.22z"/>
<path fill="#309000" d="m188.01 29.98c4.39-2.61 5.25-8.54 9.66-11.33-1.27 3.12-0.37 6.5-0.32 9.73-1.77 4.12-5.07 7.37-7.38 11.19 1.22-0.17 2.44-0.37 3.66-0.52-1.81 5.41-7.57 9.18-7.54 15.18 0.94 0.06 1.89 0.11 2.83 0.17-1.73 4.94-6.54 8.12-8.63 12.73-1.31 3.59 5.53-0.96 4.39 2.66-1.97 5.72-10.12 9.71-8.21 16.42 1.48 0.2 2.98 0.22 4.47 0.37-0.57 6.58-8.28 10.07-9.87 16.35 0.52 1.54 1.68 2.74 2.51 4.12-3.9 3.61-8.54 6.52-11.61 10.95-0.88 2.83-0.4 5.85-1.02 8.72-2.64 3.41-6.9 4.62-10.38 6.87-1.17 1.92-1.76 4.12-2.86 6.08-4.63 2.78-10.12 3.8-14.9 6.33 0.88 2.6 3.2 1.02 5.12 0.96 5.59 1.98 9.21-4.9 14.31-5.93 3.38-1.97 7.04 1.27 10.49-0.5 3.19-0.87 10.48-2.96 8.46 2.37 5.07-1.28 10.33-2.59 15.55-1.33-0.08 1.18-0.15 2.36-0.21 3.54 5.08 0.33 10.19 0.28 15.28 0.43-0.43 2.05-2.34 3.99-1.44 6.14 8.45-1.36 15.87 3.23 23.94 4.75 2.01 2.03 3.84 4.41 7.22 4.16 8.43 2.1 15.46 7.7 22.26 12.83-0.95 3.97-7.68-0.73-10.85 1.35-0.97 1.21-1.39 2.75-2.14 4.09-3.24-1-6.58-1.74-9.99-1.9-1.35 1.58 1.53 2.9 0.37 4.22-7.86 0.59-15.7 1.84-23.59 0.83-0.12 1.59-0.08 3.19-0.18 4.79-3.51 0.92-7.23 1.12-10.53 2.79-3.19 5.97-11 2.9-16.56 4.42 0.13 1.98 0.54 3.93 0.71 5.9-5.08-0.96-10.14-2.49-15.39-1.82-0.04 1.35 0.06 2.7 0.19 4.05-3.93-4.06-9.91-5.56-15.37-5.91-1 1.38-2.99 4.14-3.99 5.52-5.23 0.39-9.17-4.58-14.27-5.36-1.17 1.14-2.2 2.4-3.38 3.52-5.36-2.11-9.89-6.73-16.2-5.76-0.87 1.59-0.43 3.09 0.96 4.18-11.05 0.65-21.34-3.58-29.73-10.52 0.72-3.04 3.5-6.4 6.95-5.47 6.38 0.88 12.78-0.19 19.17-0.05 5.78 0.13 12.72 2.9 17.57-1.7 0.56-6.73 4.47-0.83 7.12-0.14 7.03 0.79 14.41 0.04 20.84-3.07 8.23 0.57 16.52 1.93 24.76 0.87 1.88-2.89 5.83-1.49 8.59-2.29 11.22-8.51 26.11-3.34 38.72-6.32 3.72 0.51 5.14-0.71 4.25-3.64-12.74-1.27-25.57 0.09-38.33-0.42-2.76 0.24-7.58-2.99-9.36 0.79-1.71 1.68-2.99-1.37-4.38-1.91-2.6 0-5.06 1.52-7.72 1.03-11.64-1.66-23.46-0.07-34.83 2.56-9.21 2.72-19.04-0.11-28.15 3.17-6.71 2.15-15.63-0.49-20.2 5.92-0.72-0.71-1.42-1.41-2.13-2.11 2.15-3.17 5.7-4.69 9.02-6.27 2.68-1.06 2.66-4.59 4.79-6.22 4.54-2.58 4.77-8.49 7.36-12.6 1.62-4.01 6.49-4.93 8.52-8.58 2.94-4.14 3.14-9.99 7.44-13.13 1.03-3.63 4.11-6.14 6.43-8.98 3.18-3.21 3.67-8.08 6.28-11.6 4.53-3.51 8.98-7.19 12.64-11.62 1.17-2.71 1.61-5.79 3.82-7.94 2.98-3.05 2.48-9.12 8.13-9-0.38-7.52 8.69-9.71 8.61-16.84 2.44-6.02 5.35-12.8 11.85-15.29 3.99-4.82 4.51-11.29 6.4-16.98z"/>
<path fill="#287b00" d="m42.68 21.23c1.09 0.61 2.21 1.18 3.24 1.89 1.81 5.8 4.22 11.58 3.95 17.79 0.57 0.21 1.7 0.64 2.27 0.86 0.33 5.36-0.39 10.73 0.17 16.09 1.02 1.86 5.48 2.23 4.05 4.79-2.85 5.39 0.48 11.42-0.54 17.12-1.96 7.44 3.01 13.71 5.1 20.35-3.87 10.24 3.6 20.82 0.24 31.02 1.46 3.25 5.06 5.28 5.94 8.9-0.95 5.52-0.49 11.13-0.63 16.71-0.18 2.38 2.51 3.38 3.84 4.96 3.38 2.21 0.52 8.59 5.02 8.83 1.03 5.33 0.66 10.85 0.94 16.27-0.58-0.23-1.73-0.67-2.31-0.9-0.63-1.9-1.54-3.68-2.65-5.34-3.18-8.51-9.97-15.56-10.53-24.95 2.21 1.12 3.88-1.19 2.98-3.23-1.98-3.97-5.7-6.79-7.84-10.66-0.48-2.51-1.44-7.52-1.93-10.02-2.81-3.89-9.33-5.98-8.63-11.72 0.41-6.25-0.89-13.81-6.93-16.96 1.31-1.67 2.71-3.33 3.56-5.3-0.72-5.5-4.65-10.02-5.68-15.47 1.17-0.91 2.52-1.58 3.67-2.53-0.67-4.5-3.14-8.97-1.23-13.56 5.86-1.24-0.21-7.26-0.15-10.92-2.83-4.18 1.63-4.34 3.63-5.9-0.49-3.36-1.94-6.58-1.96-9.99 1.14-1.44 3.4-2.26 3.68-4.2-1.81-3.09-4.13-5.87-5.67-9.11 2.05-1.1 4.65-2 4.4-4.82z"/>
<path fill="#4cb300" d="m1.97 88.92c5.96-1.84 10.95 4.77 16.09 6.6-1.24 0.9-2.44 1.85-3.51 2.95-4.04 3.04 1.64 6.29 3.3 8.9 1.58 5.07 3.69 10.51 8.73 13.08 4.43 4.59 6.78 10.92 8.81 16.87 3.94 4.85 8.37 9.35 11.22 15 1.65 3.4 5.36 4.76 8.03 7.16 1.68 2.99 2.17 6.68 4.76 9.12 1.89 2.17 5.28 4.36 3.64 7.66-4.69-3.09-9.24-6.38-14.09-9.22-7.39-3.88-10.12-12.43-16.23-17.76-7.79-7.28-14.87-15.93-17.72-26.38-2.9-7.01-1.08-15.24-5.07-21.84-2.49-4.16-5.56-7.93-7.96-12.14z"/>
<path fill="#569b00" d="m14.55 98.47c1.07-1.1 2.27-2.05 3.51-2.95 6.35 3.53 12.51 8.91 20.37 7.51 6.04 3.15 7.34 10.71 6.93 16.96-0.7 5.74 5.82 7.83 8.63 11.72 0.49 2.5 1.45 7.51 1.93 10.02 2.14 3.87 5.86 6.69 7.84 10.66 0.9 2.04-0.77 4.35-2.98 3.23-4.28-5.1-8.24-10.86-10.14-17.28-0.84-7.62-8.7-11.29-10.04-18.73-8.47 0.02-9.41-10.88-15.22-15.06-3.82-1.62-7.63-3.39-10.83-6.08z"/>
<path fill="#001200" d="m17.85 107.37c-1.66-2.61-7.34-5.86-3.3-8.9 3.2 2.69 7.01 4.46 10.83 6.08 5.81 4.18 6.75 15.08 15.22 15.06 1.34 7.44 9.2 11.11 10.04 18.73 1.9 6.42 5.86 12.18 10.14 17.28 0.56 9.39 7.35 16.44 10.53 24.95-2.77-1.43-5.61-2.71-8.27-4.31 1.64-3.3-1.75-5.49-3.64-7.66-2.59-2.44-3.08-6.13-4.76-9.12-2.67-2.4-6.38-3.76-8.03-7.16-2.85-5.65-7.28-10.15-11.22-15-2.03-5.95-4.38-12.28-8.81-16.87-5.04-2.57-7.15-8.01-8.73-13.08z"/>
<path fill="#026700" d="m115.2 118.13c0.14-2.97 2.66-3.99 4.6-5.42-2.79 4.36-3.71 9.94-7.91 13.29-2.54 1.97-1.34 6.18-3.68 8.07-4.96 0.89-4.61 6.13-6.45 9.57-1.53 0.28-3.09-0.3-4.61 0.01-0.62 6.02-2.38 12.3-7.38 16.16 2.69-6.06 6.73-11.67 7.06-18.52 1.49 0.25 2.87 0.9 4.32 1.34 1.85-4.47 0.45-11.69 6.82-12.59 0.87-5.01 6-7.13 7.23-11.91z"/>
<path fill="#035300" d="m67.1 140.04c0.94 5.41 2.81 10.96 1.82 16.51-0.46 1.87 0.55 3.57 1.39 5.16-1.33-1.58-4.02-2.58-3.84-4.96 0.14-5.58-0.32-11.19 0.63-16.71z"/>
<path fill="#599e00" d="m34.85 174.46c10.04-2.05 19.63 2.41 27.21 8.56-8.24 1.07-15.42-3.8-23.48-3.98-4.97-0.66-9.72 0.94-14.52 1.84 2.57-3.5 6.21-6.31 10.79-6.42z"/>
<path fill="#005900" d="m24.06 180.88c4.8-0.9 9.55-2.5 14.52-1.84 8.06 0.18 15.24 5.05 23.48 3.98 1.34 0.37 2.68 0.75 4 1.18-0.9 1.43-2.24 2.09-3.89 1.45-13.04-3.06-26.86-5.74-40.11-2.49 0.65-0.78 1.32-1.54 2-2.28z"/>
<path fill="#000d00" d="m22.06 183.16c13.25-3.25 27.07-0.57 40.11 2.49 1.65 0.64 2.99-0.02 3.89-1.45 2.11 0.65 4.2 1.38 6.3 2.06-0.58 0.22-1.72 0.67-2.3 0.9-15.53 2.8-32.67-7.72-47.15 0.89 0.29 0.5 0.88 1.5 1.17 2-1.81 0.87-3.57 1.89-5.47 2.58 0.63-3.27 1.04-6.93 3.45-9.47z"/>
<path fill="#005d00" d="m22.91 188.05c14.48-8.61 31.62 1.91 47.15-0.89-2.64 0.72-5.26 1.84-8.05 1.6-11.38-0.58-22.77-1.29-34.16-1.07-1.49-0.19-2.24 1.06-3.06 2.05l-0.71 0.31c-0.29-0.5-0.88-1.5-1.17-2z"/>
<path fill="#599d00" d="m72.36 186.26c0.4-0.09 1.2-0.26 1.6-0.35 0.58 0.23 1.73 0.67 2.31 0.9l0.03 0.84c-11.26 5.54-23.48 9.66-36.27 8.3-5.09-2.05-9.87-4.9-15.24-6.21 0.82-0.99 1.57-2.24 3.06-2.05 11.39-0.22 22.78 0.49 34.16 1.07 2.79 0.24 5.41-0.88 8.05-1.6 0.58-0.23 1.72-0.68 2.3-0.9z"/>
<path fill="#339400" d="m76.3 187.65c4.36-1.17 3.08 2.73 1.66 5.22-1.82 0.88-3.44 2.15-4.36 4-4.23 7.51-8.51 15.25-10.11 23.83-0.81 8.55-0.36 17.15-0.67 25.73-3.24 1.74-7.12 0.72-7.53-3.03 0.16-6.89 1.29-13.72 2.43-20.5 3.99-12.78 11.12-24.24 18.58-35.25z"/>
<path fill="#56b800" d="m78.31 193.63c3.55 7.93-0.56 17.94 4.92 25.21 1.27 2.43 3.29 4.26 5.9 5.15 3.11 8.1 1.48 17.03 1.84 25.48-0.83 1.21-1.7 2.39-2.64 3.53h-1.89c0.88-4.91 0.8-10.01-0.01-14.9-2.76-6.53-7.87-12.03-9.63-18.97-1.43-8.52 0.91-17.01 1.51-25.5z"/>
<path fill="#589c00" d="m112.62 194.15c6.31-0.97 10.84 3.65 16.2 5.76 1.18-1.12 2.21-2.38 3.38-3.52 5.1 0.78 9.04 5.75 14.27 5.36 1-1.38 2.99-4.14 3.99-5.52 5.46 0.35 11.44 1.85 15.37 5.91 4.47 6.9 8.45 14.1 13.17 20.83-12.27-6.9-26.95-8.07-38.74-15.68-3.86-3.48-9.67-3.37-14.46-4.83-4.41-0.4-7.94-3.38-12.22-4.13-1.39-1.09-1.83-2.59-0.96-4.18z"/>
<path fill="#589c00" d="m83.85 197.85c5.07 4.32 9.1 9.66 13.72 14.44 2.51 2.8 5.44 5.94 5.49 9.94 0.23 8.34-1.83 17.49-7.86 23.61-0.08-4.05-0.21-8.11-0.41-12.14 0.47-8.15-4.3-15.03-6.64-22.51-0.85 0.54-1.7 1.07-2.56 1.6-0.03-2.62 2.08-8.37-1.83-5.43-0.05-3.17 0.02-6.36 0.09-9.51z"/>
<path fill="#57b100" d="m93.19 202.97c4.31 0.48 8.66 0.39 12.98 0.77 0.09 1.12 0.17 2.25 0.24 3.39 7.54 2.18 15.5 1.74 23.24 1.26-1.17 1.84-3.43 6.06 2.78 3.47 9.46 0.65 16.28 9.28 25.89 9.51 3.42 5.49 11.76 1.15 15.49 6.15 2.74 1.77 6.01 3.11 7.05 6.55-3.23-0.93-6.82-2.31-9.91-0.24-3.22 2.3-6.37-4.48-9.05-1.1-2.21 2.38-5.25-3.39-7.6-0.46-1.74 2.23-4.35-0.05-6.6 0.7-2.9 1.09-5.07-1.6-7.57-2.54-3.24 3.71-7.86-1.74-11.28 2.13-6.33-1.44-9.1-8.7-14.29-12.17-7.72-5.06-15.58-10.09-21.37-17.42z"/>
</svg>
